<svg xmlns="http://www.w3.org/2000/svg" viewBox="0 0 512 512">
<rect width="512" height="512" rx="72" fill="#0a0a0c"/>
<g transform="translate(45.50 368.38) scale(0.36076)">
<path fill="#c4453a" d="M109 -81V-544Q109 -573 104.0 -587.5Q99 -602 82.5 -607.5Q66 -613 33 -613Q31 -613 31.0 -619.0Q31 -625 33 -625Q59 -625 90.0 -623.5Q121 -622 156 -622Q194 -622 225.0 -623.5Q256 -625 280 -625Q283 -625 283.0 -619.0Q283 -613 280 -613Q248 -613 232.0 -607.0Q216 -601 210.0 -586.0Q204 -571 204 -542V-81Q204 -52 209.5 -37.0Q215 -22 231.0 -17.0Q247 -12 280 -12Q284 -12 284.0 -6.0Q284 0 280 0Q255 0 224.5 -1.0Q194 -2 156 -2Q121 -2 89.0 -1.0Q57 0 32 0Q30 0 30.0 -6.0Q30 -12 32 -12Q65 -12 81.5 -17.0Q98 -22 103.5 -37.0Q109 -52 109 -81ZM369 -145 224 -335 294 -399 444 -200Q485 -144 514.0 -108.5Q543 -73 562.0 -52.5Q581 -32 596.0 -23.5Q611 -15 625.0 -13.5Q639 -12 656 -12Q659 -12 659.0 -6.0Q659 0 656 0Q612 0 585.0 0.0Q558 0 544 0Q531 0 522.0 1.0Q513 2 506 2Q492 2 482.5 -3.0Q473 -8 460.5 -23.0Q448 -38 426.5 -67.0Q405 -96 369 -145ZM143 -268 401 -530Q438 -567 430.0 -590.0Q422 -613 371 -613Q369 -613 369.0 -619.0Q369 -625 371 -625Q398 -625 425.0 -623.5Q452 -622 496 -622Q541 -622 567.0 -623.5Q593 -625 618 -625Q621 -625 621.0 -619.0Q621 -613 618 -613Q575 -613 523.0 -590.0Q471 -567 426 -524L170 -266Z"/>
<path fill="#4f78a8" d="M816 -543V-85Q816 -60 821.0 -47.0Q826 -34 840.0 -30.0Q854 -26 881 -26H941Q1012 -26 1061.0 -66.0Q1110 -106 1126 -172Q1127 -175 1132.0 -174.0Q1137 -173 1137 -170Q1134 -139 1131.0 -95.5Q1128 -52 1128 -15Q1128 0 1113 0H645Q643 0 643.0 -6.0Q643 -12 645 -12Q677 -12 693.5 -17.0Q710 -22 715.5 -37.0Q721 -52 721 -81V-544Q721 -573 715.5 -587.5Q710 -602 693.5 -607.5Q677 -613 645 -613Q643 -613 643.0 -619.0Q643 -625 645 -625Q669 -625 701.0 -623.5Q733 -622 768 -622Q805 -622 836.5 -623.5Q868 -625 892 -625Q895 -625 895.0 -619.0Q895 -613 892 -613Q860 -613 843.5 -607.5Q827 -602 821.5 -587.0Q816 -572 816 -543Z"/>
</g>
</svg>
